<?xml version="1.0" encoding="UTF-8" standalone="no"?>
<!DOCTYPE svg PUBLIC "-//W3C//DTD SVG 1.1//EN" "http://www.w3.org/Graphics/SVG/1.1/DTD/svg11.dtd">
<svg width="100%" height="100%" viewBox="0 0 361 361" version="1.1" xmlns="http://www.w3.org/2000/svg" xmlns:xlink="http://www.w3.org/1999/xlink" xml:space="preserve" xmlns:serif="http://www.serif.com/" style="fill-rule:evenodd;clip-rule:evenodd;stroke-linejoin:round;stroke-miterlimit:2;">
    <g transform="matrix(1,0,0,1,-224.743063,-6041.663139)">
        <g transform="matrix(1,0,0,1,0,-0.094488)">
            <g transform="matrix(9.101797,0,0,9.101797,-23286.608631,2670.337385)">
                <path d="M2583.155,410.019L2583.155,408.435C2583.155,388.165 2583.996,385.302 2585.731,381.321C2587.437,377.406 2590.149,374.695 2594.063,372.989C2598.045,371.254 2600.908,370.413 2621.177,370.413L2622.761,370.413L2622.761,377.14L2621.177,377.14C2602.937,377.14 2600.334,377.595 2596.751,379.157C2594.471,380.15 2592.892,381.729 2591.899,384.008C2590.338,387.591 2589.883,390.195 2589.883,408.435L2589.883,410.019L2583.155,410.019Z" style="fill:rgb(255,0,0);"/>
            </g>
        </g>
        <g transform="matrix(1,0,0,1,0,-0.094488)">
            <g transform="matrix(1,0,0,1,0,2133.353454)">
                <path d="M467.206,4268.892C397.731,4268.892 351.302,4215.684 351.302,4147.226C351.302,4078.429 397.731,4025.561 467.884,4025.561C520.413,4025.561 559.387,4054.367 574.298,4098.086L541.764,4112.319C530.241,4080.124 504.146,4060.807 468.9,4060.807C420.099,4060.807 388.92,4097.069 388.92,4146.887C388.92,4197.384 421.454,4233.646 468.222,4233.646C505.84,4233.646 532.953,4208.567 542.781,4179.422L575.315,4193.656C560.065,4239.068 518.38,4268.892 467.206,4268.892Z" style="fill:rgb(30,30,30);"/>
            </g>
        </g>
    </g>
</svg>
