<?xml version="1.0" encoding="UTF-8" standalone="no"?>
<!DOCTYPE svg PUBLIC "-//W3C//DTD SVG 1.1//EN" "http://www.w3.org/Graphics/SVG/1.1/DTD/svg11.dtd">
<svg width="100%" height="100%" viewBox="0 0 361 361" version="1.1" xmlns="http://www.w3.org/2000/svg" xmlns:xlink="http://www.w3.org/1999/xlink" xml:space="preserve" xmlns:serif="http://www.serif.com/" style="fill-rule:evenodd;clip-rule:evenodd;stroke-linejoin:round;stroke-miterlimit:2;">
    <g transform="matrix(1,0,0,1,-224.743063,-4471.431881)">
        <g transform="matrix(1,0,0,1,0,-0.094488)">
            <g transform="matrix(9.101797,0,0,9.101797,-23286.608631,1100.106127)">
                <path d="M2583.155,410.019L2583.155,408.435C2583.155,388.165 2583.996,385.302 2585.731,381.321C2587.437,377.406 2590.149,374.695 2594.063,372.989C2598.045,371.254 2600.908,370.413 2621.177,370.413L2622.761,370.413L2622.761,377.14L2621.177,377.14C2602.937,377.14 2600.334,377.595 2596.751,379.157C2594.471,380.15 2592.892,381.729 2591.899,384.008C2590.338,387.591 2589.883,390.195 2589.883,408.435L2589.883,410.019L2583.155,410.019Z" style="fill:rgb(255,0,0);"/>
            </g>
        </g>
    </g>
</svg>
