<?xml version="1.0" encoding="UTF-8" standalone="no"?><!DOCTYPE svg PUBLIC "-//W3C//DTD SVG 1.1//EN" "http://www.w3.org/Graphics/SVG/1.1/DTD/svg11.dtd"><svg width="100%" height="100%" viewBox="0 0 1040 318" version="1.1" xmlns="http://www.w3.org/2000/svg" xmlns:xlink="http://www.w3.org/1999/xlink" xml:space="preserve" xmlns:serif="http://www.serif.com/" style="fill-rule:evenodd;clip-rule:evenodd;stroke-linejoin:round;stroke-miterlimit:2;"><path d="M0,317.777l-0,-12.711c0,-162.63 6.752,-185.601 20.671,-217.545c13.687,-31.408 35.441,-53.163 66.849,-66.849c31.945,-13.921 54.916,-20.672 217.546,-20.672l12.711,-0l0,53.98l-12.712,0c-146.348,0 -167.235,3.65 -195.982,16.177c-18.289,7.97 -30.957,20.638 -38.927,38.927c-12.526,28.747 -16.177,49.634 -16.177,195.981l0,12.711l-53.98,0Z" style="fill:#f00;"/><path d="M213.736,317.777c-61.243,0 -102.172,-46.903 -102.172,-107.251c0,-60.646 40.929,-107.251 102.769,-107.251c46.306,0 80.662,25.394 93.807,63.932l-28.68,12.547c-10.157,-28.381 -33.161,-45.41 -64.231,-45.41c-43.02,0 -70.505,31.966 -70.505,75.882c0,44.513 28.68,76.48 69.907,76.48c33.161,0 57.061,-22.107 65.725,-47.8l28.68,12.547c-13.444,40.032 -50.19,66.322 -95.301,66.322Zm192.394,0c-39.136,0 -66.621,-25.095 -66.621,-62.438l0,-94.703l31.369,0l0,93.209c0,21.51 13.145,34.954 35.252,34.954c22.107,0 35.252,-13.444 35.252,-34.954l0,-93.209l31.07,0l0,94.703c0,37.344 -27.186,62.438 -66.322,62.438Zm107.848,-105.458c0,-26.29 13.742,-51.683 52.58,-51.683l31.07,0l0,28.68l-28.979,0c-14.639,0 -23.302,7.17 -23.302,23.9l0,101.873l-31.369,0l0,-102.769Zm158.934,102.769l-59.75,-154.453l34.057,0l43.02,118.006l41.227,-118.006l34.356,0l-59.152,154.453l-33.759,0Zm177.755,2.689c-44.513,0 -76.181,-34.954 -76.181,-80.065c0,-45.111 30.472,-79.766 76.48,-79.766c47.202,0 73.193,37.642 73.193,77.077l0,13.145l-118.006,0c3.585,26.29 20.315,41.227 45.41,41.227c23.302,0 36.447,-11.651 43.02,-25.095l24.497,12.547c-9.56,20.912 -32.564,40.929 -68.413,40.929Zm-43.617,-95.002l84.845,0c-0.299,-17.925 -14.34,-37.642 -40.331,-37.642c-23.601,0 -40.032,14.34 -44.513,37.642Zm148.478,-10.456c0,-26.29 13.742,-51.683 52.58,-51.683l31.07,0l0,28.68l-28.979,0c-14.639,0 -23.302,7.17 -23.302,23.9l0,101.873l-31.369,0l0,-102.769Z" style="fill:#1e1e1e;"/></svg>
