<?xml version="1.0" encoding="UTF-8" standalone="no"?>
<!DOCTYPE svg PUBLIC "-//W3C//DTD SVG 1.1//EN" "http://www.w3.org/Graphics/SVG/1.1/DTD/svg11.dtd">
<svg width="100%" height="100%" viewBox="0 0 1179 361" version="1.1" xmlns="http://www.w3.org/2000/svg" xmlns:xlink="http://www.w3.org/1999/xlink" xml:space="preserve" xmlns:serif="http://www.serif.com/" style="fill-rule:evenodd;clip-rule:evenodd;stroke-linejoin:round;stroke-miterlimit:2;">
    <g transform="matrix(1,0,0,1,-2751.285217,-5085.582126)">
        <g transform="matrix(1,0,0,1,0,-0.094488)">
            <g transform="matrix(9.101797,0,0,9.101797,-20760.066477,1714.256372)">
                <path d="M2583.155,410.019L2583.155,408.435C2583.155,388.165 2583.996,385.302 2585.731,381.321C2587.437,377.406 2590.149,374.695 2594.063,372.989C2598.045,371.254 2600.908,370.413 2621.177,370.413L2622.761,370.413L2622.761,377.14L2621.177,377.14C2602.937,377.14 2600.334,377.595 2596.751,379.157C2594.471,380.15 2592.892,381.729 2591.899,384.008C2590.338,387.591 2589.883,390.195 2589.883,408.435L2589.883,410.019L2583.155,410.019Z" style="fill:rgb(255,0,0);"/>
            </g>
        </g>
        <g transform="matrix(1,0,0,1,0,-0.094488)">
            <g transform="matrix(1,0,0,1,2526.542155,614.244734)">
                <path d="M467.206,4831.919C397.731,4831.919 351.302,4778.712 351.302,4710.254C351.302,4641.457 397.731,4588.589 467.884,4588.589C520.413,4588.589 559.387,4617.395 574.298,4661.113L541.764,4675.347C530.241,4643.152 504.146,4623.834 468.9,4623.834C420.099,4623.834 388.92,4660.097 388.92,4709.915C388.92,4760.411 421.454,4796.674 468.222,4796.674C505.84,4796.674 532.953,4771.595 542.781,4742.45L575.315,4756.683C560.065,4802.096 518.38,4831.919 467.206,4831.919ZM685.458,4831.919C641.062,4831.919 609.883,4803.452 609.883,4761.089L609.883,4653.658L645.468,4653.658L645.468,4759.395C645.468,4783.795 660.379,4799.046 685.458,4799.046C710.537,4799.046 725.448,4783.795 725.448,4759.395L725.448,4653.658L760.694,4653.658L760.694,4761.089C760.694,4803.452 729.854,4831.919 685.458,4831.919ZM807.801,4712.287C807.801,4682.464 823.39,4653.658 867.448,4653.658L902.693,4653.658L902.693,4686.192L869.82,4686.192C853.214,4686.192 843.386,4694.326 843.386,4713.304L843.386,4828.869L807.801,4828.869L807.801,4712.287ZM988.096,4828.869L920.316,4653.658L958.951,4653.658L1007.753,4787.523L1054.521,4653.658L1093.494,4653.658L1026.392,4828.869L988.096,4828.869ZM1189.742,4831.919C1139.246,4831.919 1103.323,4792.268 1103.323,4741.094C1103.323,4689.92 1137.89,4650.607 1190.081,4650.607C1243.627,4650.607 1273.112,4693.309 1273.112,4738.044L1273.112,4752.955L1139.246,4752.955C1143.313,4782.779 1162.291,4799.724 1190.759,4799.724C1217.193,4799.724 1232.105,4786.507 1239.561,4771.256L1267.351,4785.49C1256.506,4809.213 1230.41,4831.919 1189.742,4831.919ZM1140.263,4724.149L1236.511,4724.149C1236.172,4703.815 1220.243,4681.447 1190.759,4681.447C1163.986,4681.447 1145.346,4697.715 1140.263,4724.149ZM1308.696,4712.287C1308.696,4682.464 1324.286,4653.658 1368.343,4653.658L1403.589,4653.658L1403.589,4686.192L1370.715,4686.192C1354.109,4686.192 1344.281,4694.326 1344.281,4713.304L1344.281,4828.869L1308.696,4828.869L1308.696,4712.287Z" style="fill:white;"/>
            </g>
        </g>
    </g>
</svg>
